<?xml version="1.0" standalone="no"?>
<!DOCTYPE svg PUBLIC "-//W3C//DTD SVG 20010904//EN"
 "http://www.w3.org/TR/2001/REC-SVG-20010904/DTD/svg10.dtd">
<svg version="1.0" xmlns="http://www.w3.org/2000/svg"
 width="2048.000000pt" height="1024.000000pt" viewBox="0 0 2048.000000 1024.000000"
 preserveAspectRatio="xMidYMid meet">
<metadata>
Created by potrace 1.12, written by Peter Selinger 2001-2015
</metadata>
<g transform="translate(0.000000,1024.000000) scale(0.100000,-0.100000)"
fill="#000000" stroke="none">
<path d="M15046 6678 c-8 -13 -49 -117 -91 -233 -123 -339 -280 -770 -330
-905 -25 -69 -78 -212 -116 -318 -75 -207 -126 -324 -157 -359 -10 -12 -34
-30 -52 -41 -29 -18 -36 -19 -69 -7 -77 27 -143 67 -228 139 -98 81 -863 851
-863 867 0 12 604 610 690 684 67 58 157 102 239 117 119 22 65 33 -180 36
-128 1 -240 0 -248 -3 -11 -4 -7 -13 17 -35 18 -16 32 -35 32 -42 0 -35 -81
-128 -396 -452 l-339 -350 -3 70 c-2 38 -2 209 0 379 3 337 6 353 60 381 15 8
48 17 73 21 27 3 44 10 42 17 -3 8 -94 12 -300 14 -247 2 -297 0 -297 -11 0
-10 18 -16 55 -20 113 -12 145 -47 156 -174 10 -121 10 -1202 0 -1394 -11
-193 -27 -242 -88 -258 -21 -6 -48 -11 -61 -11 -16 0 -22 -5 -20 -17 3 -15 31
-16 300 -16 164 -1 300 2 304 5 14 15 -10 26 -71 33 -77 8 -118 36 -136 93
-16 48 -26 846 -11 841 6 -2 47 -47 93 -99 135 -154 396 -435 540 -581 212
-215 302 -271 465 -290 78 -9 632 -5 641 5 12 12 -10 24 -53 29 -65 7 -89 34
-88 96 2 54 177 590 197 603 6 4 137 8 290 8 l278 0 20 -47 c17 -41 119 -307
206 -541 27 -74 28 -90 7 -113 -9 -10 -13 -22 -10 -27 7 -11 440 -26 479 -17
34 9 36 35 2 35 -66 0 -129 23 -172 63 -78 72 -97 113 -339 742 -74 193 -141
366 -149 385 -8 19 -48 125 -90 235 -151 395 -166 435 -183 463 -8 12 -18 22
-23 22 -5 0 -15 -10 -23 -22z m2 -395 c5 -16 55 -156 110 -313 141 -399 132
-371 118 -376 -6 -2 -120 -3 -253 -2 l-241 3 112 346 c62 190 116 351 120 357
12 19 23 14 34 -15z"/>
<path d="M4472 6649 c2 -7 34 -18 69 -24 75 -12 115 -34 132 -73 19 -43 16
-1600 -4 -1666 -17 -58 -48 -85 -108 -93 -40 -5 -59 -18 -47 -30 6 -6 594 -11
614 -5 6 2 12 10 12 17 0 8 -24 15 -71 19 -92 9 -115 19 -133 54 -31 60 -36
193 -36 953 0 676 2 758 16 770 21 17 168 24 231 10 172 -36 314 -182 352
-359 15 -72 14 -196 -3 -258 -29 -109 -104 -198 -215 -253 -45 -23 -86 -34
-163 -44 -78 -10 -103 -16 -103 -27 0 -12 18 -16 80 -18 181 -7 356 68 477
203 149 167 181 462 67 627 -59 87 -130 137 -247 176 -77 26 -77 26 -501 30
-340 3 -422 1 -419 -9z"/>
<path d="M5950 6647 c0 -10 18 -16 55 -20 111 -11 143 -46 156 -168 4 -46 8
-300 9 -564 0 -365 4 -503 15 -576 37 -250 156 -425 350 -519 125 -60 196 -74
370 -74 172 0 225 10 340 64 198 93 314 237 370 459 38 150 44 257 45 771 0
256 5 483 10 505 13 56 56 92 120 101 31 4 49 11 47 18 -3 8 -88 12 -280 14
-230 2 -277 0 -277 -11 0 -10 17 -16 53 -20 76 -8 123 -30 144 -69 17 -30 18
-72 21 -518 5 -630 -8 -775 -81 -932 -59 -128 -163 -219 -307 -269 -88 -30
-244 -30 -340 0 -204 64 -327 231 -370 503 -15 98 -14 1147 1 1199 16 51 34
66 103 82 31 7 58 17 59 22 1 6 -114 11 -305 13 -256 2 -308 0 -308 -11z"/>
<path d="M8192 6648 c2 -6 34 -17 69 -23 75 -12 115 -34 132 -73 9 -20 12
-224 12 -827 -1 -870 -1 -866 -56 -907 -14 -11 -45 -22 -68 -25 -38 -5 -60
-18 -48 -29 4 -4 534 -15 672 -14 82 1 216 35 300 78 91 45 190 144 233 232
80 163 76 333 -12 490 -53 95 -203 220 -308 258 -27 9 -48 19 -48 23 0 3 25
34 56 70 121 140 165 236 166 368 1 98 -13 145 -62 213 -46 64 -117 115 -210
149 -64 23 -73 24 -449 27 -305 2 -382 1 -379 -10z m701 -82 c146 -65 229
-253 205 -465 -9 -81 -46 -158 -102 -209 -53 -49 -87 -56 -251 -51 -89 3 -118
8 -125 19 -15 24 -13 695 3 708 19 15 45 20 133 21 66 1 92 -4 137 -23z m-32
-806 c176 -34 325 -174 385 -364 78 -249 18 -451 -160 -533 -56 -26 -70 -28
-181 -28 -169 0 -238 27 -273 105 -14 29 -17 98 -20 418 -2 210 -1 389 2 397
7 18 161 21 247 5z"/>
<path d="M9925 6650 c-8 -12 5 -16 68 -24 59 -7 102 -29 124 -63 17 -25 18
-80 18 -828 0 -847 -1 -865 -46 -914 -12 -13 -38 -23 -69 -27 -50 -7 -69 -17
-51 -29 10 -6 854 -21 981 -17 89 2 107 8 124 40 16 31 46 208 46 271 0 58
-24 54 -39 -5 -17 -67 -45 -116 -85 -151 -49 -44 -132 -56 -336 -51 -237 5
-267 25 -290 187 -13 92 -14 1443 -1 1486 22 75 44 90 135 101 37 5 56 11 56
20 0 12 -56 14 -314 14 -201 0 -317 -4 -321 -10z"/>
<path d="M11450 6647 c0 -9 16 -17 45 -20 65 -9 102 -32 122 -75 17 -34 18
-94 18 -812 0 -709 -1 -780 -18 -840 -21 -77 -41 -97 -108 -106 -37 -5 -49
-11 -47 -22 3 -13 45 -15 303 -16 165 -1 306 0 313 2 6 2 12 10 12 17 0 8 -25
15 -75 20 -88 8 -127 33 -147 93 -13 41 -25 1483 -13 1602 9 85 45 124 123
135 33 4 52 11 49 19 -3 8 -85 12 -290 14 -239 2 -287 0 -287 -11z"/>
<path d="M13247 4113 c-4 -3 -7 -87 -7 -185 l0 -180 -30 30 c-90 90 -293 76
-393 -26 -61 -63 -82 -122 -82 -232 1 -83 4 -102 28 -152 51 -105 141 -158
266 -158 78 0 156 31 189 76 l21 29 1 -47 0 -48 45 0 45 0 0 450 0 450 -38 0
c-21 0 -42 -3 -45 -7z m-94 -375 c63 -34 89 -94 89 -201 0 -46 -6 -103 -13
-127 -47 -156 -275 -179 -363 -36 -25 40 -30 60 -34 130 -4 68 -1 90 18 133
40 93 111 137 208 129 28 -3 71 -15 95 -28z"/>
<path d="M5904 3829 c-23 -5 -59 -25 -82 -45 l-41 -34 -3 37 c-3 37 -4 38 -45
41 l-43 3 0 -305 0 -306 45 0 45 0 0 193 c0 207 7 250 46 297 28 33 103 60
166 60 37 0 38 1 38 35 0 35 0 35 -42 34 -24 -1 -61 -5 -84 -10z"/>
<path d="M7091 3821 c-133 -50 -202 -148 -202 -286 0 -91 12 -138 51 -197 57
-86 149 -129 280 -130 129 -2 217 36 283 121 36 46 34 57 -10 64 -33 6 -40 3
-70 -32 -50 -58 -105 -82 -197 -82 -148 -1 -225 68 -239 211 l-2 25 275 5 275
5 -3 45 c-6 98 -75 196 -168 240 -70 33 -199 38 -273 11z m239 -77 c46 -27 90
-84 97 -127 l6 -37 -223 0 -222 0 6 32 c11 55 51 103 108 133 46 23 62 26 124
22 46 -2 83 -11 104 -23z"/>
<path d="M8677 3830 c-158 -40 -250 -176 -234 -345 16 -171 136 -276 317 -277
110 -1 180 22 240 81 28 26 50 52 50 59 0 6 -19 14 -43 17 -39 6 -45 4 -84
-33 -53 -51 -126 -69 -206 -52 -112 24 -169 97 -175 228 -5 87 13 143 60 191
45 46 83 63 155 69 77 6 140 -15 186 -63 29 -29 37 -33 66 -26 19 3 36 11 38
17 6 19 -66 91 -114 114 -54 26 -191 36 -256 20z"/>
<path d="M10134 3822 c-78 -27 -128 -73 -166 -150 -30 -61 -33 -75 -33 -157 1
-78 5 -97 28 -142 56 -109 151 -165 282 -166 145 -1 255 63 306 175 33 72 34
210 2 279 -30 67 -85 123 -146 150 -72 31 -202 37 -273 11z m236 -75 c76 -37
110 -108 110 -232 -1 -155 -79 -238 -225 -238 -147 -1 -225 83 -225 243 0 37
5 82 11 101 45 134 193 191 329 126z"/>
<path d="M11775 3834 c-58 -13 -107 -39 -130 -67 l-25 -32 0 48 0 48 -42 -3
-43 -3 -3 -302 -2 -303 44 0 44 0 4 208 c3 199 4 209 28 251 32 55 85 84 165
87 l60 3 0 33 c0 32 -2 33 -40 35 -22 0 -49 -1 -60 -3z"/>
<path d="M14465 3831 c-71 -18 -130 -67 -145 -122 -10 -36 -9 -45 12 -102 17
-43 82 -75 204 -98 164 -31 215 -67 199 -139 -13 -60 -75 -91 -178 -91 -85 0
-150 28 -179 77 -22 37 -30 39 -76 23 -31 -11 -31 -12 -17 -39 22 -42 92 -97
147 -116 60 -20 165 -22 236 -5 37 9 66 26 99 55 44 40 47 46 51 104 4 55 2
66 -22 97 -38 49 -92 73 -215 97 -58 11 -117 26 -131 33 -37 19 -54 57 -43 91
16 48 55 68 138 72 88 5 139 -10 176 -51 24 -26 32 -29 63 -23 47 9 46 28 -2
76 -25 25 -56 43 -92 54 -55 16 -171 20 -225 7z"/>
</g>
</svg>
