<?xml version="1.0" standalone="no"?>
<!DOCTYPE svg PUBLIC "-//W3C//DTD SVG 20010904//EN"
 "http://www.w3.org/TR/2001/REC-SVG-20010904/DTD/svg10.dtd">
<svg version="1.0" xmlns="http://www.w3.org/2000/svg"
 width="512.000000pt" height="256.000000pt" viewBox="0 0 512.000000 256.000000"
 preserveAspectRatio="xMidYMid meet">
<metadata>
Created by potrace 1.12, written by Peter Selinger 2001-2015
</metadata>
<g transform="translate(0.000000,256.000000) scale(0.100000,-0.100000)"
fill="#000000" stroke="none">
<path d="M1143 1654 l27 -15 0 -215 c0 -213 0 -215 -22 -224 -17 -6 0 -9 57
-8 47 0 70 3 55 7 -17 5 -26 16 -31 37 -9 46 -9 388 1 404 12 19 77 6 107 -22
29 -27 48 -87 39 -123 -10 -37 -53 -75 -87 -75 -16 0 -29 -4 -29 -10 0 -13 14
-13 62 2 82 24 130 124 91 191 -27 46 -57 56 -184 61 -104 4 -112 3 -86 -10z"/>
<path d="M1514 1653 l26 -14 0 -142 c0 -78 5 -160 10 -181 18 -78 71 -124 152
-133 72 -7 118 9 162 57 41 46 46 71 49 262 2 118 4 139 20 150 15 11 8 13
-50 14 -56 0 -63 -1 -41 -9 35 -13 38 -33 34 -204 -3 -117 -7 -147 -22 -174
-59 -101 -185 -100 -236 2 -24 46 -27 369 -4 369 8 0 17 3 19 8 3 4 -29 7 -70
8 -70 1 -73 0 -49 -13z"/>
<path d="M2073 1654 l27 -15 0 -215 c0 -213 0 -215 -22 -224 -16 -6 8 -9 80
-9 67 -1 114 4 137 13 55 23 89 93 73 152 -9 34 -63 94 -85 94 -18 0 -16 7 12
44 46 60 26 147 -38 161 -12 2 -65 7 -117 9 -88 5 -93 4 -67 -10z m166 -21
c27 -22 44 -93 32 -125 -14 -36 -36 -50 -78 -46 l-38 3 -3 79 c-2 44 -1 85 2
93 8 19 60 16 85 -4z m19 -213 c62 -38 83 -140 37 -185 -18 -19 -35 -25 -67
-25 -69 0 -72 6 -76 124 l-4 106 38 0 c22 0 54 -9 72 -20z"/>
<path d="M2509 1656 c28 -12 30 -30 30 -220 0 -199 -4 -225 -33 -236 -13 -6
32 -9 120 -9 139 -1 142 -1 148 22 3 12 6 31 5 42 0 17 -2 16 -14 -7 -11 -19
-26 -29 -51 -34 -44 -8 -105 1 -116 18 -4 7 -8 102 -8 210 l0 197 26 14 c24
13 20 14 -50 13 -52 -1 -71 -4 -57 -10z"/>
<path d="M2889 1652 c20 -14 21 -21 21 -211 0 -211 -3 -238 -29 -244 -9 -3 20
-5 64 -5 44 0 71 2 60 5 -42 10 -45 28 -45 235 0 183 1 198 20 216 19 18 18
18 -47 18 -60 0 -64 -1 -44 -14z"/>
<path d="M3158 1657 c11 -5 23 -19 26 -31 7 -26 6 -370 -1 -397 -3 -12 -15
-25 -27 -29 -14 -6 6 -8 59 -8 44 0 70 3 58 5 -30 6 -35 28 -31 139 l3 91 80
-88 c130 -142 132 -144 250 -146 55 -1 92 1 83 3 -24 7 -23 26 5 110 l24 69
64 3 c78 4 84 -2 119 -111 l25 -77 60 1 c41 1 52 3 35 8 -34 9 -57 54 -142
278 -40 106 -76 193 -80 193 -7 0 -17 -26 -104 -264 -81 -219 -83 -223 -134
-190 -39 26 -240 227 -240 240 0 19 189 194 210 194 10 0 21 4 24 9 3 5 -21 8
-54 7 -50 -1 -59 -3 -55 -17 4 -11 -24 -48 -84 -110 l-90 -94 -1 97 c0 84 2
99 19 110 17 12 11 14 -51 14 -50 0 -64 -3 -50 -9z"/>
<path d="M3310 983 c0 -37 -3 -44 -12 -35 -31 31 -102 2 -113 -46 -14 -65 38
-117 95 -95 20 8 31 8 39 0 8 -8 11 22 11 106 0 71 -4 117 -10 117 -5 0 -10
-21 -10 -47z"/>
<path d="M2510 940 c-28 -28 -34 -63 -16 -98 30 -59 122 -50 146 13 11 30 -5
82 -30 95 -30 16 -79 11 -100 -10z"/>
</g>
</svg>
